<mxfile host="Electron" modified="2023-11-02T22:08:55.714Z" agent="Mozilla/5.0 (X11; Linux x86_64) AppleWebKit/537.36 (KHTML, like Gecko) draw.io/22.0.3 Chrome/114.0.5735.289 Electron/25.8.4 Safari/537.36" etag="hJjOy2_ldTU9JUgCrrKQ" version="22.0.3" type="device">
  <diagram name="Page-1" id="vqawt_pa_Ti0r471idAp">
    <mxGraphModel dx="1195" dy="698" grid="1" gridSize="10" guides="1" tooltips="1" connect="1" arrows="1" fold="1" page="1" pageScale="1" pageWidth="850" pageHeight="1100" math="0" shadow="0">
      <root>
        <mxCell id="0" />
        <mxCell id="1" parent="0" />
        <mxCell id="Aqb49cXZrw4Dc4B_JBT5-3" style="edgeStyle=orthogonalEdgeStyle;rounded=0;orthogonalLoop=1;jettySize=auto;html=1;entryX=0;entryY=0.5;entryDx=0;entryDy=0;" edge="1" parent="1" source="Aqb49cXZrw4Dc4B_JBT5-1" target="Aqb49cXZrw4Dc4B_JBT5-2">
          <mxGeometry relative="1" as="geometry" />
        </mxCell>
        <mxCell id="Aqb49cXZrw4Dc4B_JBT5-1" value="&lt;b&gt;&lt;font style=&quot;font-size: 17px;&quot;&gt;PUT&lt;/font&gt;&lt;/b&gt;" style="html=1;shadow=0;dashed=0;align=center;verticalAlign=middle;shape=mxgraph.arrows2.arrow;dy=0;dx=30;notch=30;" vertex="1" parent="1">
          <mxGeometry x="10" y="360" width="150" height="80" as="geometry" />
        </mxCell>
        <mxCell id="Aqb49cXZrw4Dc4B_JBT5-2" value="" style="rhombus;whiteSpace=wrap;html=1;strokeWidth=2;fillWeight=-1;hachureGap=8;fillStyle=cross-hatch;fillColor=#006600;sketch=1;" vertex="1" parent="1">
          <mxGeometry x="190" y="375" width="60" height="50" as="geometry" />
        </mxCell>
        <mxCell id="Aqb49cXZrw4Dc4B_JBT5-12" style="edgeStyle=orthogonalEdgeStyle;rounded=0;orthogonalLoop=1;jettySize=auto;html=1;entryX=0;entryY=0.5;entryDx=0;entryDy=0;" edge="1" parent="1" source="Aqb49cXZrw4Dc4B_JBT5-6" target="Aqb49cXZrw4Dc4B_JBT5-11">
          <mxGeometry relative="1" as="geometry" />
        </mxCell>
        <mxCell id="Aqb49cXZrw4Dc4B_JBT5-14" style="edgeStyle=orthogonalEdgeStyle;rounded=0;orthogonalLoop=1;jettySize=auto;html=1;" edge="1" parent="1" source="Aqb49cXZrw4Dc4B_JBT5-6" target="Aqb49cXZrw4Dc4B_JBT5-13">
          <mxGeometry relative="1" as="geometry">
            <mxPoint x="460" y="400" as="targetPoint" />
          </mxGeometry>
        </mxCell>
        <mxCell id="Aqb49cXZrw4Dc4B_JBT5-6" value="Create Batch" style="shape=step;perimeter=stepPerimeter;whiteSpace=wrap;html=1;fixedSize=1;" vertex="1" parent="1">
          <mxGeometry x="230" y="360" width="120" height="80" as="geometry" />
        </mxCell>
        <mxCell id="Aqb49cXZrw4Dc4B_JBT5-11" value="&lt;b&gt;Write Ahead Log&lt;br&gt;&lt;i&gt;WAL&lt;/i&gt;&lt;/b&gt;" style="shape=document;whiteSpace=wrap;html=1;boundedLbl=1;" vertex="1" parent="1">
          <mxGeometry x="450" y="200" width="120" height="80" as="geometry" />
        </mxCell>
        <mxCell id="Aqb49cXZrw4Dc4B_JBT5-13" value="&lt;i&gt;In memory&lt;br&gt;MemTable&lt;/i&gt;" style="shape=cylinder3;whiteSpace=wrap;html=1;boundedLbl=1;backgroundOutline=1;size=15;" vertex="1" parent="1">
          <mxGeometry x="480" y="342.5" width="90" height="115" as="geometry" />
        </mxCell>
        <mxCell id="Aqb49cXZrw4Dc4B_JBT5-17" value="&lt;h1 style=&quot;font-size: 17px;&quot;&gt;&lt;font style=&quot;font-size: 17px;&quot; color=&quot;#ffff33&quot;&gt;Step 1&lt;/font&gt;&lt;/h1&gt;&lt;p style=&quot;&quot;&gt;&lt;font style=&quot;font-size: 12px;&quot;&gt;First of all we have to write data to WAL in case to make sure that data can be recovered in case of db crash&lt;/font&gt;&lt;/p&gt;" style="text;html=1;strokeColor=none;fillColor=none;spacing=5;spacingTop=-20;whiteSpace=wrap;overflow=hidden;rounded=0;" vertex="1" parent="1">
          <mxGeometry x="580" y="185" width="190" height="110" as="geometry" />
        </mxCell>
        <mxCell id="Aqb49cXZrw4Dc4B_JBT5-19" value="&lt;h1 style=&quot;font-size: 17px;&quot;&gt;&lt;font style=&quot;font-size: 17px;&quot; color=&quot;#ffff33&quot;&gt;Step 2&lt;/font&gt;&lt;/h1&gt;&lt;p style=&quot;&quot;&gt;&lt;font style=&quot;font-size: 12px;&quot;&gt;Write data to in memory memtable note that if db crashes we lose this data&lt;/font&gt;&lt;/p&gt;" style="text;html=1;strokeColor=none;fillColor=none;spacing=5;spacingTop=-20;whiteSpace=wrap;overflow=hidden;rounded=0;" vertex="1" parent="1">
          <mxGeometry x="590" y="347.5" width="190" height="110" as="geometry" />
        </mxCell>
        <mxCell id="Aqb49cXZrw4Dc4B_JBT5-20" value="" style="curved=1;endArrow=classic;html=1;rounded=0;" edge="1" parent="1">
          <mxGeometry width="50" height="50" relative="1" as="geometry">
            <mxPoint x="400" y="400" as="sourcePoint" />
            <mxPoint x="460" y="630" as="targetPoint" />
            <Array as="points">
              <mxPoint x="540" y="600" />
              <mxPoint x="390" y="490" />
            </Array>
          </mxGeometry>
        </mxCell>
        <mxCell id="Aqb49cXZrw4Dc4B_JBT5-23" style="edgeStyle=orthogonalEdgeStyle;rounded=0;orthogonalLoop=1;jettySize=auto;html=1;entryX=0;entryY=0.5;entryDx=0;entryDy=0;" edge="1" parent="1" source="Aqb49cXZrw4Dc4B_JBT5-21">
          <mxGeometry relative="1" as="geometry">
            <mxPoint x="620" y="660" as="targetPoint" />
          </mxGeometry>
        </mxCell>
        <mxCell id="Aqb49cXZrw4Dc4B_JBT5-21" value="&lt;i&gt;Maybe flush memtable&lt;/i&gt;" style="shape=parallelogram;perimeter=parallelogramPerimeter;whiteSpace=wrap;html=1;fixedSize=1;" vertex="1" parent="1">
          <mxGeometry x="400" y="630" width="120" height="60" as="geometry" />
        </mxCell>
        <mxCell id="Aqb49cXZrw4Dc4B_JBT5-25" value="Create new memtable and move old to channel with flushable memtables" style="rounded=1;whiteSpace=wrap;html=1;absoluteArcSize=1;arcSize=38;strokeWidth=2;" vertex="1" parent="1">
          <mxGeometry x="620" y="610" width="100" height="100" as="geometry" />
        </mxCell>
      </root>
    </mxGraphModel>
  </diagram>
</mxfile>
